<mxfile host="Electron" agent="Mozilla/5.0 (Windows NT 10.0; Win64; x64) AppleWebKit/537.36 (KHTML, like Gecko) draw.io/28.1.2 Chrome/138.0.7204.243 Electron/37.4.0 Safari/537.36" version="28.1.2">
  <diagram name="Secret Agent Data Redactor" id="secret-agent-architecture">
    <mxGraphModel dx="1426" dy="849" grid="1" gridSize="10" guides="1" tooltips="1" connect="1" arrows="1" fold="1" page="1" pageScale="1" pageWidth="827" pageHeight="1169" math="0" shadow="0">
      <root>
        <mxCell id="0" />
        <mxCell id="1" parent="0" />
        <mxCell id="req2" value="&lt;b&gt;&lt;font style=&quot;font-size: 11px;&quot;&gt;Invoke with&lt;br&gt;clearance level&lt;/font&gt;&lt;/b&gt;" style="edgeStyle=orthogonalEdgeStyle;rounded=0;orthogonalLoop=1;jettySize=auto;html=1;fontSize=10;fontColor=#000000;strokeWidth=2;strokeColor=#FF6600" parent="1" source="WkDOvXB3UYcYANzG270f-3" target="WkDOvXB3UYcYANzG270f-1" edge="1">
          <mxGeometry relative="1" as="geometry">
            <mxPoint x="390" y="230" as="sourcePoint" />
            <mxPoint x="480" y="160" as="targetPoint" />
          </mxGeometry>
        </mxCell>
        <mxCell id="req3" value="&lt;b&gt;Fetch original&lt;br&gt;data&lt;/b&gt;" style="edgeStyle=orthogonalEdgeStyle;rounded=0;orthogonalLoop=1;jettySize=auto;html=1;fontSize=10;fontColor=#000000;strokeWidth=2;strokeColor=#009900" parent="1" target="WkDOvXB3UYcYANzG270f-6" edge="1">
          <mxGeometry relative="1" as="geometry">
            <mxPoint x="540" y="200" as="sourcePoint" />
            <mxPoint x="540" y="390" as="targetPoint" />
          </mxGeometry>
        </mxCell>
        <mxCell id="req4" value="&lt;b&gt;&lt;font style=&quot;font-size: 12px;&quot;&gt;Read file&lt;/font&gt;&lt;/b&gt;" style="edgeStyle=orthogonalEdgeStyle;rounded=0;orthogonalLoop=1;jettySize=auto;html=1;fontSize=10;fontColor=#000000;strokeWidth=2;strokeColor=#009900" parent="1" target="WkDOvXB3UYcYANzG270f-7" edge="1">
          <mxGeometry relative="1" as="geometry">
            <mxPoint x="572.5" y="390" as="sourcePoint" />
            <mxPoint x="682" y="391" as="targetPoint" />
          </mxGeometry>
        </mxCell>
        <mxCell id="legend" value="&lt;font style=&quot;font-size: 12px;&quot;&gt;&lt;b&gt;ðŸ”’ Clearance Levels:&lt;br&gt;&lt;br&gt;â€¢ PUBLIC: Heavy redaction&lt;br&gt;&lt;br&gt;â€¢ CONFIDENTIAL: Moderate redaction&lt;br&gt;&lt;br&gt;â€¢ TOP_SECRET: Minimal redaction&lt;/b&gt;&lt;/font&gt;" style="text;html=1;strokeColor=#82b366;fillColor=#d5e8d4;align=left;verticalAlign=top;whiteSpace=wrap;rounded=1;fontSize=10" parent="1" vertex="1">
          <mxGeometry x="66" y="321.5" width="240" height="125" as="geometry" />
        </mxCell>
        <mxCell id="WkDOvXB3UYcYANzG270f-1" value="" style="sketch=0;points=[[0,0,0],[0.25,0,0],[0.5,0,0],[0.75,0,0],[1,0,0],[0,1,0],[0.25,1,0],[0.5,1,0],[0.75,1,0],[1,1,0],[0,0.25,0],[0,0.5,0],[0,0.75,0],[1,0.25,0],[1,0.5,0],[1,0.75,0]];outlineConnect=0;fontColor=#232F3E;fillColor=#ED7100;strokeColor=#ffffff;dashed=0;verticalLabelPosition=bottom;verticalAlign=top;align=center;html=1;fontSize=12;fontStyle=0;aspect=fixed;shape=mxgraph.aws4.resourceIcon;resIcon=mxgraph.aws4.lambda;" vertex="1" parent="1">
          <mxGeometry x="501" y="159" width="78" height="78" as="geometry" />
        </mxCell>
        <mxCell id="WkDOvXB3UYcYANzG270f-2" value="&lt;span style=&quot;font-weight: 700; color: rgb(0, 0, 0);&quot;&gt;Data Redactor&lt;/span&gt;&lt;br style=&quot;font-weight: 700; color: rgb(0, 0, 0);&quot;&gt;&lt;span style=&quot;font-weight: 700; color: rgb(0, 0, 0);&quot;&gt;Lambda Function&lt;/span&gt;" style="text;html=1;align=center;verticalAlign=middle;whiteSpace=wrap;rounded=0;" vertex="1" parent="1">
          <mxGeometry x="579" y="165" width="120" height="30" as="geometry" />
        </mxCell>
        <mxCell id="WkDOvXB3UYcYANzG270f-3" value="" style="sketch=0;outlineConnect=0;fontColor=#232F3E;gradientColor=none;fillColor=#7AA116;strokeColor=none;dashed=0;verticalLabelPosition=bottom;verticalAlign=top;align=center;html=1;fontSize=12;fontStyle=0;aspect=fixed;pointerEvents=1;shape=mxgraph.aws4.s3_object_lambda_access_points;" vertex="1" parent="1">
          <mxGeometry x="300" y="159" width="78" height="78" as="geometry" />
        </mxCell>
        <mxCell id="WkDOvXB3UYcYANzG270f-17" style="edgeStyle=orthogonalEdgeStyle;rounded=0;orthogonalLoop=1;jettySize=auto;html=1;strokeWidth=2;strokeColor=#3333FF;" edge="1" parent="1" source="WkDOvXB3UYcYANzG270f-5" target="WkDOvXB3UYcYANzG270f-3">
          <mxGeometry relative="1" as="geometry" />
        </mxCell>
        <mxCell id="WkDOvXB3UYcYANzG270f-5" value="" style="sketch=0;pointerEvents=1;shadow=0;dashed=0;html=1;strokeColor=none;labelPosition=center;verticalLabelPosition=bottom;verticalAlign=top;align=center;fillColor=#505050;shape=mxgraph.mscae.intune.account_portal" vertex="1" parent="1">
          <mxGeometry x="100" y="166" width="60" height="64" as="geometry" />
        </mxCell>
        <mxCell id="WkDOvXB3UYcYANzG270f-6" value="&lt;b&gt;S3 Access Point&lt;/b&gt;" style="sketch=0;outlineConnect=0;fontColor=#232F3E;gradientColor=none;fillColor=#7AA116;strokeColor=none;dashed=0;verticalLabelPosition=bottom;verticalAlign=top;align=center;html=1;fontSize=12;fontStyle=0;aspect=fixed;pointerEvents=1;shape=mxgraph.aws4.general_access_points;" vertex="1" parent="1">
          <mxGeometry x="507.5" y="355" width="65" height="78" as="geometry" />
        </mxCell>
        <mxCell id="WkDOvXB3UYcYANzG270f-7" value="&lt;b&gt;&lt;span style=&quot;color: rgb(0, 0, 0); text-wrap-mode: wrap;&quot;&gt;S3 Bucket&lt;/span&gt;&lt;br style=&quot;color: rgb(0, 0, 0); text-wrap-mode: wrap;&quot;&gt;&lt;span style=&quot;color: rgb(0, 0, 0); text-wrap-mode: wrap;&quot;&gt;(Classified Reports)&lt;/span&gt;&lt;/b&gt;" style="sketch=0;outlineConnect=0;fontColor=#232F3E;gradientColor=none;fillColor=#7AA116;strokeColor=none;dashed=0;verticalLabelPosition=bottom;verticalAlign=top;align=center;html=1;fontSize=12;fontStyle=0;aspect=fixed;pointerEvents=1;shape=mxgraph.aws4.bucket_with_objects;" vertex="1" parent="1">
          <mxGeometry x="691" y="352" width="75" height="78" as="geometry" />
        </mxCell>
        <mxCell id="WkDOvXB3UYcYANzG270f-8" value="&lt;span style=&quot;text-wrap-mode: nowrap; background-color: rgb(255, 255, 255);&quot;&gt;&lt;b style=&quot;&quot;&gt;&lt;font style=&quot;font-size: 11px;&quot;&gt;GET &lt;br&gt;/report.json?clearance=XXX&lt;/font&gt;&lt;/b&gt;&lt;/span&gt;" style="text;html=1;align=center;verticalAlign=middle;whiteSpace=wrap;rounded=0;" vertex="1" parent="1">
          <mxGeometry x="122" y="153" width="207" height="30" as="geometry" />
        </mxCell>
        <mxCell id="WkDOvXB3UYcYANzG270f-14" value="&lt;b style=&quot;color: rgb(35, 47, 62); text-wrap-mode: nowrap;&quot;&gt;S3 Object Lambda&lt;br&gt;Access Point&lt;/b&gt;" style="text;html=1;align=center;verticalAlign=middle;whiteSpace=wrap;rounded=0;" vertex="1" parent="1">
          <mxGeometry x="370" y="240" width="60" height="30" as="geometry" />
        </mxCell>
        <mxCell id="WkDOvXB3UYcYANzG270f-19" value="" style="endArrow=classic;html=1;rounded=0;entryX=0.5;entryY=1;entryDx=0;entryDy=0;entryPerimeter=0;strokeWidth=2;dashed=1;strokeColor=#CC0066;" edge="1" parent="1" target="WkDOvXB3UYcYANzG270f-5">
          <mxGeometry width="50" height="50" relative="1" as="geometry">
            <mxPoint x="340" y="237.5" as="sourcePoint" />
            <mxPoint x="280" y="232.5" as="targetPoint" />
            <Array as="points">
              <mxPoint x="340" y="277.5" />
              <mxPoint x="280" y="277.5" />
              <mxPoint x="130" y="278" />
            </Array>
          </mxGeometry>
        </mxCell>
        <mxCell id="WkDOvXB3UYcYANzG270f-20" value="&lt;span style=&quot;text-wrap-mode: nowrap; background-color: rgb(255, 255, 255);&quot;&gt;&lt;b style=&quot;&quot;&gt;&lt;font style=&quot;font-size: 11px;&quot;&gt;Receives redacted file&lt;/font&gt;&lt;/b&gt;&lt;/span&gt;" style="text;html=1;align=center;verticalAlign=middle;whiteSpace=wrap;rounded=0;" vertex="1" parent="1">
          <mxGeometry x="140" y="250" width="207" height="30" as="geometry" />
        </mxCell>
        <mxCell id="WkDOvXB3UYcYANzG270f-21" value="&lt;b&gt;Agent&lt;/b&gt;" style="text;html=1;align=center;verticalAlign=middle;whiteSpace=wrap;rounded=0;" vertex="1" parent="1">
          <mxGeometry x="50" y="170" width="60" height="30" as="geometry" />
        </mxCell>
      </root>
    </mxGraphModel>
  </diagram>
</mxfile>
